<svg id="visual" viewBox="0 0 900 600" preserveAspectRatio="none" xmlns="http://www.w3.org/2000/svg"
  xmlns:xlink="http://www.w3.org/1999/xlink" version="1.1">
  <rect x="0" y="0" width="900" height="600" fill="#2666d5"></rect>
  <path
    d="M0 353L21.5 358.5C43 364 86 375 128.8 380.7C171.7 386.3 214.3 386.7 257.2 379.8C300 373 343 359 385.8 362.7C428.7 366.3 471.3 387.7 514.2 391.8C557 396 600 383 642.8 382.8C685.7 382.7 728.3 395.3 771.2 395.5C814 395.7 857 383.3 878.5 377.2L900 371L900 601L878.5 601C857 601 814 601 771.2 601C728.3 601 685.7 601 642.8 601C600 601 557 601 514.2 601C471.3 601 428.7 601 385.8 601C343 601 300 601 257.2 601C214.3 601 171.7 601 128.8 601C86 601 43 601 21.5 601L0 601Z"
    fill="#2666d5"></path>
  <path
    d="M0 432L21.5 428.2C43 424.3 86 416.7 128.8 411.8C171.7 407 214.3 405 257.2 408.3C300 411.7 343 420.3 385.8 421.8C428.7 423.3 471.3 417.7 514.2 421.8C557 426 600 440 642.8 442.2C685.7 444.3 728.3 434.7 771.2 430C814 425.3 857 425.7 878.5 425.8L900 426L900 601L878.5 601C857 601 814 601 771.2 601C728.3 601 685.7 601 642.8 601C600 601 557 601 514.2 601C471.3 601 428.7 601 385.8 601C343 601 300 601 257.2 601C214.3 601 171.7 601 128.8 601C86 601 43 601 21.5 601L0 601Z"
    fill="#4277da"></path>
  <path
    d="M0 460L21.5 458C43 456 86 452 128.8 448.7C171.7 445.3 214.3 442.7 257.2 448.5C300 454.3 343 468.7 385.8 471.7C428.7 474.7 471.3 466.3 514.2 461.3C557 456.3 600 454.7 642.8 458.8C685.7 463 728.3 473 771.2 473.3C814 473.7 857 464.3 878.5 459.7L900 455L900 601L878.5 601C857 601 814 601 771.2 601C728.3 601 685.7 601 642.8 601C600 601 557 601 514.2 601C471.3 601 428.7 601 385.8 601C343 601 300 601 257.2 601C214.3 601 171.7 601 128.8 601C86 601 43 601 21.5 601L0 601Z"
    fill="#5a87df"></path>
  <path
    d="M0 533L21.5 532.8C43 532.7 86 532.3 128.8 526.2C171.7 520 214.3 508 257.2 499.2C300 490.3 343 484.7 385.8 482.2C428.7 479.7 471.3 480.3 514.2 484.8C557 489.3 600 497.7 642.8 500.5C685.7 503.3 728.3 500.7 771.2 496.2C814 491.7 857 485.3 878.5 482.2L900 479L900 601L878.5 601C857 601 814 601 771.2 601C728.3 601 685.7 601 642.8 601C600 601 557 601 514.2 601C471.3 601 428.7 601 385.8 601C343 601 300 601 257.2 601C214.3 601 171.7 601 128.8 601C86 601 43 601 21.5 601L0 601Z"
    fill="#7098e3"></path>
  <path
    d="M0 529L21.5 534.5C43 540 86 551 128.8 558C171.7 565 214.3 568 257.2 565.2C300 562.3 343 553.7 385.8 551.7C428.7 549.7 471.3 554.3 514.2 552.5C557 550.7 600 542.3 642.8 543.8C685.7 545.3 728.3 556.7 771.2 559C814 561.3 857 554.7 878.5 551.3L900 548L900 601L878.5 601C857 601 814 601 771.2 601C728.3 601 685.7 601 642.8 601C600 601 557 601 514.2 601C471.3 601 428.7 601 385.8 601C343 601 300 601 257.2 601C214.3 601 171.7 601 128.8 601C86 601 43 601 21.5 601L0 601Z"
    fill="#86a8e6"></path>
</svg>